<?xml version="1.0" standalone="no"?>
<!DOCTYPE svg PUBLIC "-//W3C//DTD SVG 20010904//EN"
 "http://www.w3.org/TR/2001/REC-SVG-20010904/DTD/svg10.dtd">
<svg version="1.0" xmlns="http://www.w3.org/2000/svg"
 width="2085.000000pt" height="2367.000000pt" viewBox="0 0 2085.000000 2367.000000"
 preserveAspectRatio="xMidYMid meet">

<g transform="translate(0.000000,2367.000000) scale(0.100000,-0.100000)"
fill="#000000" stroke="none">
<path d="M10074 23502 c-149 -118 -203 -211 -378 -658 -37 -94 -90 -211 -118
-260 -67 -115 -186 -236 -275 -278 l-63 -30 -87 34 c-49 18 -207 82 -353 142
-588 243 -936 330 -1260 315 -130 -6 -303 -34 -295 -47 8 -13 202 -90 430
-170 284 -101 359 -131 476 -192 260 -135 409 -308 469 -542 24 -96 26 -136 5
-136 -26 0 -52 -36 -75 -106 -26 -78 -57 -114 -97 -114 -15 0 -119 25 -230 54
-992 267 -1942 369 -2585 280 -207 -28 -494 -99 -466 -115 26 -14 209 -49 445
-84 134 -19 287 -47 340 -60 258 -66 411 -198 451 -390 13 -61 2 -83 -66 -126
-120 -76 -244 -91 -702 -83 -296 6 -359 4 -439 -10 -106 -19 -202 -60 -245
-105 l-29 -30 49 -22 c84 -36 225 -67 477 -104 412 -61 562 -106 636 -190 35
-40 54 -101 45 -142 -14 -66 -8 -63 -89 -32 -101 40 -295 85 -438 104 -155 20
-469 20 -624 0 -479 -62 -825 -266 -933 -549 l-11 -29 108 6 c76 3 179 20 348
57 355 77 467 75 561 -12 51 -47 83 -118 91 -204 5 -59 4 -67 -18 -90 -60 -65
-206 -147 -335 -187 -162 -51 -241 -61 -484 -61 -296 0 -429 16 -1075 134
-543 99 -728 122 -985 122 -267 1 -425 -29 -590 -112 -209 -105 -332 -254
-437 -526 -8 -22 52 -18 148 10 46 14 185 67 309 119 375 157 552 207 732 207
185 0 295 -46 425 -177 46 -45 83 -87 83 -93 0 -8 -11 -9 -32 -5 -52 12 -221
9 -279 -5 -199 -47 -335 -185 -390 -399 -41 -156 -36 -353 15 -551 l22 -91
-84 -92 c-589 -644 -914 -1180 -1097 -1812 -108 -375 -155 -732 -155 -1185 l0
-248 87 -47 c233 -126 338 -243 374 -414 11 -55 7 -276 -6 -332 l-7 -26 104 0
c118 0 174 -13 217 -49 51 -42 55 -75 26 -197 -105 -444 -152 -1077 -126
-1697 23 -560 68 -1031 176 -1857 25 -188 45 -347 45 -353 0 -6 -87 -53 -193
-104 -231 -111 -292 -148 -375 -229 -104 -102 -104 -101 -91 -257 27 -341 122
-518 338 -629 247 -127 466 -139 670 -37 227 115 431 375 661 841 48 99 154
326 235 505 296 654 442 909 644 1122 325 343 699 351 1154 24 l77 -55 0 53
c0 69 -32 194 -67 259 -15 29 -63 88 -108 132 -65 66 -97 89 -175 127 -113 55
-218 89 -355 114 -152 28 -529 26 -720 -4 -427 -66 -818 -218 -1031 -398 -41
-35 -66 -50 -68 -42 -3 7 -9 92 -16 188 -85 1359 12 2361 295 3035 94 226 194
382 339 533 159 164 300 263 686 477 238 132 364 210 478 295 91 68 292 258
292 277 0 15 -151 82 -239 104 -165 42 -397 42 -641 -1 -63 -11 -256 -55 -429
-98 l-314 -76 -31 39 c-225 285 -381 403 -601 456 -49 12 -96 23 -102 25 -16
4 51 198 121 352 171 379 444 729 760 975 263 204 578 372 914 487 138 48 136
44 59 127 -59 64 -146 118 -392 241 -327 164 -419 238 -445 357 -12 52 -2 132
16 128 5 -1 59 -22 119 -47 517 -209 1219 -283 1731 -181 458 92 744 312 820
630 18 77 23 231 11 342 l-8 72 68 -41 c252 -153 605 -232 892 -199 139 17
254 51 381 113 93 45 116 62 200 147 74 74 105 114 137 176 73 144 107 289 91
391 -10 68 -66 192 -134 296 -83 129 -108 185 -112 252 -3 41 1 74 12 99 l16
38 72 -6 c147 -13 417 -56 565 -89 278 -63 482 -129 1118 -364 221 -82 430
-153 604 -207 l24 -7 -7 358 c-7 385 0 507 35 629 48 163 149 257 293 272 l52
5 34 -52 c94 -146 110 -265 110 -799 l0 -411 28 6 c234 52 414 111 807 266
500 197 664 252 901 302 150 31 284 46 416 46 98 0 277 -16 286 -25 3 -2 -18
-35 -46 -72 -299 -404 -257 -838 111 -1129 200 -158 463 -244 747 -244 258 0
493 71 689 207 35 24 65 42 67 40 2 -2 -1 -43 -7 -93 -14 -117 -14 -333 0
-463 13 -119 10 -115 131 -216 270 -225 562 -325 949 -325 348 0 572 44 1363
270 604 173 823 217 1118 227 136 4 200 2 288 -11 116 -17 284 -67 363 -106
68 -35 204 -125 251 -168 81 -71 78 -71 62 -2 -68 292 -248 508 -498 598 -147
54 -237 66 -466 66 -280 0 -442 -22 -1131 -153 -655 -124 -995 -146 -1266 -81
-205 49 -367 155 -473 310 -45 66 -80 134 -80 154 0 23 117 74 201 87 95 15
201 7 432 -33 287 -49 488 -43 537 17 30 36 -131 221 -255 292 -267 154 -605
202 -1405 203 -372 0 -561 14 -545 40 3 4 29 24 58 43 115 77 257 116 612 172
326 50 468 90 583 164 33 22 63 44 66 50 9 14 -101 47 -202 61 -49 6 -241 10
-493 9 -273 -1 -438 3 -484 10 -186 31 -288 84 -352 184 l-24 39 27 53 c32 65
110 145 184 190 113 68 222 103 565 179 189 43 324 85 420 134 85 42 84 43
-113 71 -544 79 -1036 51 -2127 -119 -769 -120 -1089 -154 -1111 -119 -4 7 -7
73 -7 148 1 201 36 318 133 435 114 138 258 215 650 350 239 83 410 169 497
252 l68 65 -125 -6 c-383 -19 -748 -92 -1125 -227 -77 -28 -276 -104 -443
-169 -167 -65 -307 -119 -311 -119 -4 0 -38 26 -75 59 -197 170 -372 444 -476
746 -40 115 -91 306 -106 390 -11 69 -16 70 -70 27z"/>
<path d="M17214 18976 c-203 -46 -385 -160 -704 -441 -190 -167 -270 -232
-353 -288 -38 -25 -68 -48 -68 -52 0 -4 72 -38 161 -76 766 -325 1219 -696
1473 -1205 89 -179 155 -373 190 -567 l15 -79 -62 9 c-223 30 -314 -17 -440
-229 -107 -179 -179 -237 -278 -224 -28 4 -191 42 -362 86 -396 99 -489 115
-681 114 -119 -1 -166 -6 -230 -23 -82 -22 -245 -95 -245 -111 0 -15 149 -168
229 -234 105 -87 234 -175 446 -301 443 -266 621 -409 795 -640 507 -674 721
-1805 594 -3144 -15 -165 -51 -454 -60 -483 -4 -15 -16 -9 -72 36 -242 194
-662 359 -1077 422 -166 25 -493 25 -620 0 -263 -51 -422 -130 -561 -279 -97
-104 -170 -250 -189 -380 l-7 -43 111 53 c574 276 1001 196 1336 -248 143
-190 253 -402 465 -895 274 -637 405 -870 599 -1065 153 -153 287 -224 472
-249 187 -26 438 29 679 148 50 25 56 32 81 93 42 103 59 187 59 285 0 262
-149 449 -535 675 -77 45 -142 83 -144 85 -2 1 13 69 32 151 104 430 160 888
188 1528 13 299 7 1087 -11 1395 -11 205 -47 680 -59 790 l-7 71 60 43 c205
146 284 326 256 576 -6 52 -13 103 -16 113 -4 13 1 17 24 17 45 0 181 38 247
69 78 37 154 98 205 164 l40 54 0 134 c0 324 -46 695 -125 1011 -176 701 -514
1291 -1213 2117 -66 78 -70 85 -57 105 78 119 86 403 19 679 -14 55 -30 107
-36 115 -18 21 -135 77 -213 102 -89 28 -263 36 -351 16z"/>
<path d="M10435 18861 c-40 -17 -92 -141 -116 -277 -5 -32 -14 -205 -19 -384
-12 -422 -31 -533 -112 -647 -33 -46 -110 -103 -138 -103 -41 0 -119 33 -157
65 -51 43 -87 115 -110 215 -14 63 -16 126 -15 393 1 175 -2 356 -8 402 -20
160 -68 256 -155 306 -44 25 -60 29 -130 29 l-80 0 -1 -182 c0 -169 -2 -190
-27 -273 -35 -115 -85 -219 -177 -370 -142 -234 -192 -358 -206 -509 -13 -141
36 -358 107 -483 206 -360 719 -486 1264 -312 213 68 386 169 520 304 86 86
139 165 178 264 42 107 49 260 18 376 -42 151 -125 288 -261 429 l-85 88 0
257 c0 222 -2 262 -18 301 -22 54 -52 88 -94 106 -35 15 -146 18 -178 5z"/>
<path d="M7087 17876 c-178 -60 -392 -272 -588 -581 -141 -223 -306 -588 -378
-837 -154 -530 -100 -844 195 -1128 125 -120 241 -193 534 -337 520 -254 580
-286 696 -362 184 -121 204 -139 226 -208 55 -175 78 -383 58 -533 -40 -308
-187 -519 -592 -850 -414 -339 -550 -487 -640 -699 -28 -67 -32 -89 -36 -190
-8 -216 26 -585 78 -842 112 -556 356 -1101 666 -1489 101 -125 274 -294 398
-387 121 -91 313 -194 449 -242 299 -105 637 -104 951 1 635 212 835 818 571
1732 -193 669 -647 1450 -1047 1802 l-57 50 19 126 c54 350 131 634 355 1303
230 686 293 918 355 1293 16 96 13 102 -53 102 -135 0 -292 -43 -617 -167
-364 -140 -563 -194 -772 -209 -110 -8 -106 -9 -219 82 -173 141 -370 446
-458 712 -54 162 -74 281 -74 437 -1 167 22 277 82 395 l38 75 64 -3 c83 -3
246 -44 357 -88 174 -70 314 -157 636 -393 359 -263 505 -343 709 -386 93 -20
243 -20 250 0 17 42 18 164 3 235 -48 224 -177 374 -593 688 -131 98 -314 248
-408 332 -348 313 -466 403 -640 490 -201 101 -371 126 -518 76z"/>
<path d="M12705 17889 c-317 -47 -776 -346 -1205 -785 -375 -383 -594 -735
-626 -1005 l-6 -57 42 -7 c93 -16 265 19 397 80 124 57 233 129 491 322 136
103 285 211 332 242 108 69 283 153 380 181 103 30 324 38 429 16 41 -8 76
-18 80 -21 7 -8 -103 -680 -135 -825 -76 -337 -193 -569 -347 -686 -122 -92
-245 -134 -395 -134 -155 0 -272 35 -552 165 -335 156 -487 204 -671 212 -139
7 -129 21 -129 -179 0 -290 67 -529 278 -988 256 -559 311 -695 367 -915 52
-200 68 -348 61 -535 -11 -310 -87 -550 -251 -795 -91 -135 -165 -223 -370
-438 -346 -363 -433 -470 -529 -657 -100 -195 -140 -362 -138 -585 2 -450 247
-915 616 -1167 89 -61 250 -134 361 -164 123 -32 358 -44 483 -24 559 89 1229
710 1603 1485 122 252 204 492 254 740 34 169 45 289 45 477 -1 345 -51 529
-198 724 -86 114 -207 226 -462 429 -482 383 -634 588 -669 908 -18 159 15
377 87 572 l29 80 124 68 c68 37 225 112 349 168 606 271 821 401 980 592 73
87 153 243 180 352 141 556 -129 1397 -595 1860 -224 222 -470 327 -690 294z"/>
<path d="M9715 15432 c-22 -41 -100 -182 -173 -311 -173 -308 -277 -513 -345
-686 -90 -224 -158 -501 -173 -701 -6 -74 -5 -83 18 -120 92 -145 313 -261
603 -316 104 -19 152 -22 370 -23 219 0 266 3 380 24 254 45 472 135 579 239
l48 47 -5 170 c-18 586 -208 1047 -656 1592 l-76 92 -3 -72 c-7 -146 26 -319
118 -627 28 -91 59 -206 70 -257 25 -117 43 -311 34 -390 l-6 -61 -79 -22
c-207 -56 -463 -75 -606 -46 -44 9 -96 23 -115 30 -93 39 -158 121 -158 197 0
51 50 247 120 469 108 344 149 548 136 684 -7 73 -24 154 -35 160 -3 2 -24
-30 -46 -72z"/>
<path d="M9620 13244 c-99 -9 -299 -47 -375 -71 -107 -34 -200 -82 -259 -134
l-48 -42 7 -76 c60 -663 602 -1537 1084 -1748 74 -32 111 -41 111 -25 0 6 61
83 426 535 364 449 532 803 589 1240 8 65 15 124 15 131 0 41 -363 127 -725
172 -125 15 -711 28 -825 18z"/>
<path d="M1076 13216 c-103 -38 -188 -173 -233 -370 -26 -113 -24 -385 5 -499
28 -112 65 -189 116 -245 37 -40 93 -79 102 -70 2 2 -3 28 -11 58 -26 95 -30
208 -11 292 20 90 60 160 155 272 133 158 171 245 171 396 0 100 -2 104 -93
145 -70 32 -148 40 -201 21z"/>
<path d="M18795 13189 c-15 -19 -39 -58 -53 -88 -21 -45 -24 -64 -20 -125 6
-91 40 -164 151 -323 185 -263 232 -366 247 -538 l6 -80 37 75 c76 152 111
321 111 535 0 228 -40 367 -135 470 -65 70 -126 98 -230 103 l-85 4 -29 -33z"/>
<path d="M15813 10510 c-154 -28 -312 -127 -430 -270 -49 -59 -54 -68 -48
-100 30 -159 157 -224 525 -265 161 -18 278 -40 329 -61 l33 -14 -7 -82 c-128
-1615 -603 -2896 -1553 -4195 l-74 -103 -27 19 c-46 33 -191 163 -341 306
-419 398 -600 545 -830 668 -344 185 -684 210 -1032 75 l-78 -29 0 -258 0
-258 74 -37 c40 -21 92 -55 114 -77 50 -47 112 -64 217 -57 92 6 138 28 244
118 138 117 196 136 369 119 368 -34 583 -200 686 -529 61 -193 86 -453 86
-900 0 -598 38 -878 150 -1105 40 -82 128 -211 137 -202 1 2 7 97 13 211 22
441 89 792 215 1140 208 574 597 1063 1131 1424 54 36 66 40 93 32 78 -22 114
-66 182 -223 56 -129 107 -188 179 -207 23 -6 43 -10 45 -8 2 2 -5 68 -16 148
-87 673 -5 1336 220 1795 53 107 132 238 165 273 10 10 26 8 82 -9 131 -40
207 -102 258 -209 26 -55 31 -79 34 -161 3 -59 0 -111 -8 -133 -16 -51 -77
-98 -182 -141 -142 -59 -189 -113 -187 -212 2 -84 8 -95 88 -135 80 -42 153
-50 214 -24 49 20 116 102 177 216 84 159 141 235 203 270 45 26 62 30 130 30
346 0 503 -230 422 -621 -31 -148 -102 -302 -196 -424 -58 -77 -63 -76 106
-18 236 82 390 195 462 340 34 68 38 85 41 172 6 144 -28 255 -129 426 -104
176 -345 437 -574 620 -112 90 -340 245 -427 290 -63 33 -69 48 -38 88 25 31
81 52 180 68 131 20 170 52 170 139 0 35 -3 39 -41 54 -23 9 -89 22 -148 27
-164 17 -249 35 -294 64 -30 21 -38 32 -34 48 2 12 15 69 28 127 21 94 23 130
23 335 0 202 -2 243 -22 335 -83 380 -265 702 -512 901 -95 77 -233 150 -328
174 -79 20 -202 27 -269 15z"/>
<path d="M4025 10456 c-178 -41 -330 -132 -477 -284 -218 -228 -353 -514 -425
-902 -34 -184 -20 -652 23 -793 5 -16 -4 -17 -123 -11 -154 8 -268 -6 -340
-42 l-53 -25 0 -50 c0 -84 42 -110 200 -124 100 -9 157 -34 175 -78 15 -36 10
-113 -9 -125 -6 -4 -52 -23 -102 -43 -394 -155 -820 -532 -988 -874 -109 -220
-120 -399 -35 -566 76 -152 277 -286 538 -358 l70 -19 -44 53 c-82 101 -145
227 -190 380 -32 107 -44 289 -26 374 34 158 141 265 302 301 78 17 283 9 325
-13 67 -35 102 -96 148 -256 45 -154 100 -239 159 -242 87 -4 126 9 238 81 42
27 88 52 103 56 29 7 31 20 15 78 -18 67 -80 121 -208 184 -181 88 -231 149
-231 281 0 50 4 60 54 126 89 118 187 185 271 185 189 0 357 -315 444 -835 40
-242 46 -323 46 -665 0 -342 -8 -435 -50 -615 -7 -33 -12 -62 -9 -64 2 -2 27
6 55 20 71 33 124 96 198 237 86 165 142 227 230 252 26 7 38 1 112 -55 239
-180 477 -446 659 -737 90 -144 236 -433 315 -623 121 -292 250 -696 365
-1146 32 -127 61 -233 63 -235 6 -6 34 268 67 656 49 574 82 839 136 1077 118
527 314 806 624 889 95 25 267 22 395 -6 119 -26 254 -74 383 -135 l94 -45 33
35 c28 30 39 35 78 35 45 0 47 1 56 38 37 135 46 204 46 347 0 145 -1 152 -29
213 -91 196 -323 219 -705 70 -431 -168 -1142 -642 -1540 -1027 -47 -44 -85
-80 -87 -78 -1 1 -51 92 -111 202 -61 110 -175 319 -255 465 -547 996 -809
1609 -973 2275 -111 449 -168 965 -150 1350 l7 153 211 5 c231 6 296 16 402
67 119 57 190 166 202 312 l6 66 -69 51 c-82 61 -206 123 -289 146 -83 22
-255 28 -330 11z"/>
<path d="M9906 9407 c-39 -206 -68 -293 -133 -400 -190 -313 -598 -458 -1173
-417 -283 20 -251 26 -272 -50 -68 -248 -59 -529 25 -750 64 -170 143 -303
371 -620 92 -127 191 -274 222 -326 128 -218 196 -414 213 -613 l6 -74 33 28
c49 41 78 99 131 258 26 79 62 168 80 196 37 57 99 100 164 111 38 8 43 6 89
-38 81 -75 101 -128 187 -489 38 -159 80 -250 142 -308 27 -25 53 -45 59 -45
26 0 72 153 110 363 56 313 119 437 253 498 120 54 182 -11 266 -276 50 -158
82 -219 140 -262 24 -19 45 -32 48 -30 2 2 8 44 14 93 38 335 134 546 441 968
269 369 361 550 419 826 18 85 22 141 23 295 l1 189 -40 23 c-22 12 -71 30
-110 40 -63 16 -115 18 -517 15 l-446 -3 -53 26 c-68 35 -149 112 -198 190
-22 34 -72 126 -111 206 -128 255 -198 334 -341 384 -37 13 -39 13 -43 -8z"/>
<path d="M6945 5456 c-100 -67 -156 -141 -259 -343 -52 -103 -115 -211 -138
-240 -54 -66 -137 -130 -215 -167 l-61 -29 -7 -73 c-8 -88 0 -241 21 -384 54
-361 229 -599 514 -696 37 -12 84 -26 104 -29 l36 -7 0 49 c0 84 -27 159 -127
353 -91 177 -98 193 -101 259 -5 82 14 151 56 200 l28 34 59 -17 c111 -32 197
-96 267 -199 58 -86 89 -160 184 -440 129 -382 170 -456 454 -822 374 -482
411 -587 375 -1055 -21 -269 -17 -416 15 -510 28 -83 71 -152 124 -195 43 -35
149 -89 200 -101 l29 -7 -6 104 c-4 81 -13 129 -42 219 -40 127 -51 209 -41
292 l7 56 62 20 c338 111 714 -21 906 -318 22 -34 47 -81 57 -106 l17 -44 -40
-52 c-22 -29 -93 -116 -158 -193 -64 -77 -139 -173 -166 -214 -92 -140 -144
-299 -155 -476 l-7 -104 37 -6 c46 -9 125 1 179 22 96 37 176 104 393 328 119
124 240 242 268 264 70 54 164 110 207 123 34 10 40 8 96 -30 90 -61 183 -139
363 -306 214 -199 283 -258 388 -333 79 -57 209 -133 227 -133 4 0 5 75 2 168
-3 129 -9 183 -25 237 -38 125 -115 260 -257 450 -87 116 -153 215 -185 280
-28 55 -50 105 -50 111 0 13 374 262 455 302 168 83 331 99 485 46 70 -24 87
-35 99 -58 21 -45 17 -194 -9 -311 -40 -185 -44 -226 -28 -266 18 -41 76 -74
113 -65 12 3 51 36 85 73 71 75 137 201 164 313 51 211 48 482 -8 760 l-21
107 75 80 c179 191 279 362 525 893 249 538 377 747 574 933 74 70 206 167
226 167 16 0 25 -56 25 -165 0 -110 -19 -186 -69 -279 -21 -39 -61 -115 -90
-168 -32 -59 -57 -123 -66 -165 -24 -112 -27 -107 60 -100 42 4 110 18 151 32
279 94 420 350 505 921 l12 81 -70 86 c-39 48 -119 155 -179 238 -264 367
-314 433 -397 533 -49 59 -96 106 -105 106 -32 -1 -107 -41 -145 -78 -76 -73
-116 -189 -142 -410 -36 -307 -55 -373 -166 -592 -357 -703 -1125 -1644 -1749
-2142 -364 -291 -724 -445 -953 -408 -278 44 -716 343 -1275 869 -359 339
-564 584 -776 931 -184 301 -315 567 -598 1215 -197 451 -273 615 -285 615 -5
0 -31 -15 -58 -34z"/>
</g>
</svg>
