<?xml version="1.0" standalone="no"?>
<!DOCTYPE svg PUBLIC "-//W3C//DTD SVG 20010904//EN"
 "http://www.w3.org/TR/2001/REC-SVG-20010904/DTD/svg10.dtd">
<svg version="1.0" xmlns="http://www.w3.org/2000/svg"
 width="1703.000000pt" height="2459.000000pt" viewBox="0 0 1703.000000 2459.000000"
 preserveAspectRatio="xMidYMid meet">

<g transform="translate(0.000000,2459.000000) scale(0.100000,-0.100000)"
fill="#000000" stroke="none">
<path d="M8005 24252 c-290 -226 -790 -626 -1090 -871 -230 -188 -302 -255
-620 -576 -198 -199 -391 -391 -430 -426 -178 -159 -345 -257 -477 -279 -105
-18 -295 -8 -383 20 -186 59 -308 144 -603 418 -237 222 -356 313 -491 381
-77 39 -75 40 -125 -81 -40 -96 -78 -246 -97 -378 -19 -132 -15 -508 10 -790
36 -425 44 -624 32 -784 -21 -267 -55 -386 -164 -568 -113 -188 -240 -344
-604 -746 -269 -296 -317 -354 -565 -685 -369 -492 -527 -747 -653 -1056 -38
-92 -115 -327 -115 -350 0 -4 62 -34 137 -66 823 -348 1285 -629 1634 -992
411 -429 618 -962 636 -1644 l6 -216 -78 -6 c-288 -25 -623 15 -890 104 -327
109 -694 346 -1158 747 -189 162 -299 222 -409 222 -85 0 -84 2 -43 -161 306
-1219 749 -2153 1341 -2829 125 -143 366 -377 495 -480 120 -96 257 -196 281
-205 11 -5 47 45 146 202 207 330 320 468 460 562 137 92 246 125 422 125 111
1 133 -2 198 -26 623 -226 1396 -1625 1527 -2763 31 -267 14 -583 -39 -737
-53 -151 -208 -324 -362 -399 -83 -42 -86 -42 -213 -47 -97 -3 -147 -1 -203
12 -99 22 -269 108 -388 195 -270 199 -359 248 -472 258 -51 5 -58 4 -58 -12
0 -47 178 -659 285 -979 495 -1484 1173 -2646 2053 -3520 l120 -118 20 53 c11
30 79 205 150 389 297 762 402 1072 500 1475 162 658 175 1178 51 1975 -41
265 -90 522 -214 1130 -57 283 -139 691 -180 905 -133 681 -211 1005 -325
1345 -109 328 -206 526 -338 690 -34 43 -135 148 -225 232 -285 268 -320 311
-530 628 -577 875 -882 1742 -968 2745 -17 204 -15 656 5 855 117 1198 663
2120 1668 2823 380 265 903 532 1427 727 l165 61 125 -46 c934 -350 1707 -848
2229 -1438 812 -918 1111 -2027 911 -3387 -80 -547 -226 -1012 -474 -1509
-181 -362 -340 -616 -770 -1231 -461 -659 -492 -714 -599 -1076 -151 -508
-226 -1112 -370 -2949 -245 -3116 -245 -6045 -1 -8393 41 -393 47 -447 55
-455 8 -9 103 293 185 587 80 288 195 752 345 1386 234 990 360 1466 510 1925
302 919 665 1588 1118 2056 l102 106 -112 7 c-842 51 -1293 522 -1394 1459
-20 187 -20 597 0 825 110 1224 710 2861 1356 3702 41 52 123 145 184 205 244
242 442 321 680 270 225 -48 420 -218 618 -540 30 -49 103 -178 163 -285 171
-308 325 -545 361 -557 11 -4 374 538 544 812 661 1065 1109 1998 1445 3010
54 164 175 569 175 587 0 4 -37 -15 -82 -43 -188 -116 -331 -224 -713 -539
-391 -322 -618 -480 -869 -604 -232 -115 -440 -180 -674 -211 -115 -15 -422
-20 -519 -9 l-53 7 0 82 c0 108 16 312 36 450 98 689 399 1254 930 1746 267
247 555 455 1139 824 138 86 252 159 254 161 6 6 -108 229 -176 341 -97 160
-233 353 -406 575 -83 106 -236 303 -341 438 -105 134 -294 364 -421 510 -540
621 -681 840 -731 1135 -25 148 -28 425 -9 805 30 595 5 851 -109 1085 -52
107 -149 235 -178 235 -34 0 -170 -50 -252 -93 -44 -23 -161 -95 -260 -161
-456 -301 -638 -390 -889 -432 l-97 -16 -107 99 c-737 678 -1662 1406 -2440
1916 -234 154 -461 297 -471 296 -4 0 -97 -71 -207 -157z"/>
<path d="M8083 18182 c-127 -136 -310 -332 -408 -437 -235 -251 -406 -443
-580 -650 -158 -188 -435 -552 -435 -572 0 -17 34 -69 405 -628 417 -628 554
-853 723 -1190 228 -456 369 -877 464 -1388 l13 -69 90 94 c194 200 295 388
558 1039 188 463 238 561 517 1009 292 469 368 610 439 825 85 257 77 404 -34
627 -156 311 -541 745 -1100 1237 -127 112 -388 331 -409 343 -9 5 -92 -78
-243 -240z"/>
</g>
</svg>
