<?xml version="1.0" standalone="no"?>
<!DOCTYPE svg PUBLIC "-//W3C//DTD SVG 20010904//EN"
 "http://www.w3.org/TR/2001/REC-SVG-20010904/DTD/svg10.dtd">
<svg version="1.0" xmlns="http://www.w3.org/2000/svg"
 width="3000.000000pt" height="3000.000000pt" viewBox="0 0 3000.000000 3000.000000"
 preserveAspectRatio="xMidYMid meet">

<g transform="translate(0.000000,3000.000000) scale(0.100000,-0.100000)"
fill="#000000" stroke="none">
<path d="M14757 20114 c-3 -3 -61 -12 -129 -20 -196 -21 -494 -84 -643 -136
-193 -66 -485 -204 -664 -312 -420 -255 -735 -554 -998 -946 -67 -100 -176
-294 -225 -399 -49 -106 -128 -305 -128 -323 0 -7 19 16 41 50 49 76 193 218
304 302 119 90 359 203 495 234 17 3 49 34 90 88 89 114 284 306 411 405 147
115 329 229 505 316 285 143 408 185 714 243 l195 37 285 1 c298 0 361 -5 605
-56 388 -79 770 -252 1083 -488 165 -126 369 -329 484 -482 21 -29 44 -56 51
-60 25 -16 547 -3 547 14 0 5 -33 59 -73 121 -514 784 -1340 1273 -2342 1387
-55 6 -124 15 -154 21 -59 10 -444 13 -454 3z"/>
<path d="M7735 19599 c-133 -12 -135 -12 -135 -42 0 -26 32 -59 98 -101 117
-74 226 -365 177 -470 -27 -56 -103 -135 -265 -273 -196 -168 -258 -247 -245
-316 5 -27 -2 -49 -35 -112 -61 -116 -154 -247 -239 -337 l-75 -80 13 -71 c7
-40 15 -86 18 -103 5 -29 3 -31 -38 -42 -77 -20 -185 -32 -288 -32 -86 0 -108
4 -155 25 -68 31 -100 31 -167 1 -46 -21 -61 -23 -99 -16 -71 14 -188 11 -272
-7 -68 -14 -89 -15 -183 -3 l-106 13 -44 66 c-66 98 -196 243 -251 280 -86 57
-127 43 -413 -148 -204 -137 -305 -194 -399 -227 -49 -17 -68 -28 -70 -43 -4
-27 47 -54 118 -61 43 -5 51 -8 35 -15 -11 -5 -49 -38 -85 -74 -61 -62 -92
-83 -165 -110 -30 -11 -49 -36 -345 -440 -89 -120 -101 -151 -61 -151 52 0 77
-35 121 -166 26 -75 28 -90 16 -102 -25 -25 -87 -25 -160 2 -39 14 -75 22 -82
18 -6 -4 -69 -59 -139 -122 -70 -63 -206 -171 -301 -241 -130 -93 -190 -144
-235 -197 -39 -47 -91 -93 -147 -131 -100 -67 -115 -82 -137 -135 -16 -37 -15
-39 6 -62 21 -22 22 -28 12 -96 -16 -109 -47 -179 -141 -318 -105 -155 -137
-217 -158 -306 l-17 -69 25 -37 c35 -51 41 -116 27 -284 l-12 -144 -52 -19
c-50 -19 -259 -72 -495 -125 -140 -32 -170 -44 -170 -65 0 -20 68 -47 251
-101 138 -39 406 -158 414 -183 2 -6 9 -110 14 -230 10 -212 10 -220 -10 -259
-17 -33 -19 -50 -14 -92 13 -92 67 -240 162 -446 131 -283 143 -317 143 -430
l0 -86 106 -124 c58 -69 143 -163 188 -210 46 -47 123 -132 173 -190 153 -178
254 -260 306 -246 11 3 78 -19 161 -54 81 -34 188 -69 251 -84 61 -13 122 -29
136 -34 61 -24 117 -104 294 -420 l110 -197 85 -56 c47 -32 175 -107 285 -169
110 -62 240 -140 288 -173 103 -70 221 -178 272 -248 20 -27 43 -49 50 -49 18
0 38 34 66 110 20 55 36 78 109 150 47 47 137 124 200 171 63 48 140 111 170
141 30 30 68 63 83 73 l28 18 54 -38 c30 -20 82 -66 115 -101 32 -35 63 -64
67 -64 5 0 33 25 63 56 30 31 81 76 114 100 50 38 65 44 106 44 52 0 64 -9 75
-58 12 -58 35 -59 138 -8 105 52 171 69 213 57 16 -5 56 -23 89 -40 33 -17 67
-31 75 -31 8 0 26 13 40 30 l25 30 55 -15 c51 -14 56 -13 75 5 19 18 36 20
173 20 135 0 155 2 184 20 33 20 39 20 2653 20 1795 -1 2631 2 2655 9 31 10
37 8 66 -20 l32 -31 98 21 c55 12 128 24 164 27 61 5 69 4 134 -31 79 -42 111
-43 211 -5 88 33 165 32 237 -3 73 -36 129 -90 223 -218 41 -56 136 -166 211
-245 116 -123 139 -143 159 -138 18 4 26 0 35 -18 32 -61 116 -188 126 -188
16 0 68 68 109 144 30 53 41 65 59 64 45 -4 179 131 336 337 132 173 157 201
213 238 99 66 221 72 335 17 55 -27 67 -26 148 16 65 33 73 35 136 30 37 -4
113 -16 168 -28 l101 -21 32 30 c32 30 33 30 102 22 39 -4 1233 -8 2655 -9
2562 0 2585 0 2615 -20 26 -17 47 -20 170 -20 120 0 146 -3 177 -20 34 -18 40
-18 85 -5 48 14 48 14 78 -15 17 -17 37 -30 45 -30 8 0 47 17 87 37 72 37 73
37 135 26 35 -6 99 -27 142 -48 111 -51 126 -51 147 5 16 45 46 70 82 70 23 0
211 -143 240 -182 11 -15 25 -28 30 -28 6 0 54 43 108 95 125 121 137 123 224
34 33 -33 110 -98 171 -144 229 -172 294 -242 345 -367 22 -55 36 -78 48 -78
10 0 69 54 131 121 153 163 193 191 535 382 286 160 307 175 356 265 131 243
245 434 288 484 41 48 88 70 201 92 102 21 130 30 284 94 98 41 124 48 142 40
19 -9 32 -5 76 22 76 48 85 57 141 140 27 41 118 145 201 230 84 85 197 206
251 269 l100 114 5 111 c7 119 15 144 131 392 92 198 131 300 160 422 19 82
19 83 -1 122 -23 45 -25 114 -10 354 9 147 9 150 37 172 62 51 145 84 375 148
140 40 268 92 268 110 0 19 -60 43 -147 61 -106 21 -523 124 -549 135 -30 12
-47 116 -42 267 3 101 6 125 27 163 42 80 19 149 -126 375 -91 143 -112 188
-133 285 -7 30 -16 68 -21 84 -14 44 -11 82 7 97 18 15 12 50 -17 91 -11 15
-62 57 -112 94 -56 39 -118 95 -158 142 -51 60 -101 102 -228 191 -207 144
-289 210 -374 298 -76 78 -79 78 -169 39 -21 -9 -48 -16 -61 -16 -33 0 -87 20
-87 32 0 6 21 64 47 129 l47 118 38 6 c46 8 48 21 11 84 -30 53 -64 97 -180
232 -45 53 -111 138 -146 189 -62 88 -68 94 -144 130 -78 37 -143 89 -143 115
0 8 -14 18 -31 22 -48 13 -34 28 22 25 64 -4 107 13 115 45 8 31 9 30 -111 93
-244 129 -326 176 -421 239 -123 82 -174 108 -244 121 -42 8 -58 7 -74 -4 -47
-32 -160 -152 -237 -251 -44 -58 -90 -110 -102 -117 -15 -8 -62 -8 -161 -3
-180 10 -305 11 -383 0 -56 -7 -66 -5 -107 19 -56 33 -93 33 -156 1 -43 -22
-62 -25 -152 -25 -101 1 -285 21 -322 36 -16 6 -17 14 -12 58 4 28 14 70 22
94 8 23 14 47 14 51 0 5 -54 76 -119 158 -190 238 -222 293 -251 425 -19 82
-35 105 -157 209 -59 51 -158 143 -219 203 -131 130 -145 159 -125 254 18 80
47 157 86 227 47 81 62 98 122 134 51 32 83 68 83 95 0 42 -230 55 -520 30
-187 -16 -409 -18 -2477 -21 -1764 -3 -2273 -7 -2272 -16 0 -7 30 -34 66 -62
86 -66 311 -288 398 -394 39 -46 111 -140 161 -210 l91 -126 904 -7 c497 -3
938 -10 979 -16 55 -7 114 -5 220 6 176 17 526 11 671 -12 433 -71 879 -366
1121 -742 76 -119 132 -260 189 -484 28 -106 32 -141 31 -230 -2 -113 -20
-235 -58 -399 -47 -203 -91 -294 -197 -408 -53 -57 -15 -67 119 -32 43 11 120
40 170 63 77 37 98 52 138 102 27 32 67 71 90 87 37 25 135 67 155 67 4 0 28
-13 52 -30 50 -34 71 -36 123 -15 99 41 181 50 476 50 230 -1 301 -4 370 -18
84 -17 86 -17 142 4 68 25 87 22 157 -26 85 -59 130 -58 131 3 0 38 27 37 84
-2 29 -20 59 -36 68 -36 20 0 33 -17 42 -52 7 -31 31 -58 52 -58 7 0 23 20 34
44 23 48 63 91 78 82 5 -3 12 -25 16 -48 4 -24 14 -53 22 -65 24 -38 48 -28
88 37 39 63 49 69 82 46 15 -11 23 -35 33 -98 8 -46 22 -104 33 -130 16 -38
26 -48 51 -54 62 -13 86 -34 161 -146 93 -141 140 -242 173 -373 19 -78 43
-230 43 -277 0 -47 4 -50 280 -215 243 -146 444 -279 478 -315 28 -31 48 -128
63 -315 12 -143 24 -178 54 -153 9 8 34 39 55 70 21 30 49 65 62 78 l25 23 51
-41 c77 -60 81 -111 18 -232 -32 -62 -33 -67 -18 -81 27 -24 73 -38 130 -40
28 -1 52 -3 52 -6 0 -2 -20 -25 -44 -51 -57 -61 -71 -116 -35 -139 13 -9 34
-25 48 -37 l25 -21 -35 -44 c-85 -106 -90 -143 -29 -186 22 -15 40 -33 40 -38
0 -6 -25 -34 -55 -64 -30 -30 -55 -60 -55 -68 0 -7 29 -28 65 -45 36 -18 65
-38 65 -45 0 -8 -20 -28 -45 -45 -66 -46 -66 -61 -6 -120 68 -66 67 -78 -6
-78 -86 0 -87 -2 -80 -111 7 -115 -2 -139 -77 -203 -54 -46 -56 -50 -50 -86 6
-38 6 -39 -35 -51 -66 -20 -131 -107 -131 -176 0 -16 3 -16 -65 2 -31 8 -62
12 -70 9 -9 -4 -17 -28 -21 -65 -4 -33 -11 -62 -15 -65 -5 -3 -21 4 -35 15
-23 18 -29 19 -53 7 -14 -8 -33 -22 -42 -32 -24 -27 -59 -100 -59 -122 0 -10
-6 -27 -14 -37 -13 -18 -14 -18 -44 3 -16 12 -40 22 -51 22 -65 0 -141 -166
-141 -306 0 -33 -5 -66 -11 -74 -8 -13 -12 -11 -27 10 -27 39 -51 60 -68 60
-26 0 -74 -63 -89 -117 -8 -29 -22 -78 -30 -108 -9 -30 -20 -55 -25 -55 -12 0
-59 91 -75 145 -12 39 -14 40 -56 40 -42 0 -45 -2 -70 -48 -33 -60 -51 -142
-49 -210 2 -29 2 -55 1 -59 0 -4 -25 7 -53 26 -29 18 -105 58 -169 89 -64 32
-175 95 -247 142 -134 87 -164 97 -209 72 -43 -25 -138 -124 -189 -198 -62
-92 -86 -167 -83 -258 l3 -66 -48 -3 c-27 -2 -59 -10 -72 -18 -22 -15 -25 -14
-63 16 -21 18 -53 58 -70 90 -17 32 -37 60 -45 63 -14 6 -56 -33 -73 -68 -6
-11 -14 -41 -17 -67 -8 -55 -9 -55 -101 -32 -74 19 -126 11 -199 -30 -23 -13
-64 -26 -91 -30 -27 -5 -1578 -5 -3447 -1 l-3397 8 -26 39 c-14 21 -31 62 -37
91 -17 76 -22 80 -69 56 -36 -18 -53 -39 -105 -125 -10 -17 -12 -16 -32 4 -12
12 -28 22 -35 22 -20 0 -65 -52 -78 -90 -17 -47 -39 -80 -54 -80 -7 0 -23 20
-35 45 -14 30 -28 45 -40 45 -39 0 -82 -73 -105 -173 -4 -22 -10 -27 -24 -22
-23 7 -52 -31 -70 -92 -6 -24 -14 -43 -17 -43 -3 0 -17 9 -31 20 -14 11 -31
20 -38 20 -14 0 -35 -50 -35 -81 0 -27 -21 -69 -35 -69 -6 0 -36 13 -66 30
-82 45 -161 37 -246 -26 -21 -15 -23 -15 -43 18 -11 18 -20 43 -20 55 0 34
-18 73 -33 73 -8 0 -22 -9 -32 -20 -26 -29 -42 -25 -50 13 -12 53 -46 108 -65
102 -23 -7 -33 7 -64 95 -14 41 -36 83 -48 93 -22 18 -23 18 -38 -1 -8 -11
-23 -34 -33 -52 -9 -17 -22 -30 -28 -28 -6 2 -27 34 -47 72 -21 38 -49 75 -64
84 -26 15 -29 15 -53 -8 -14 -13 -27 -22 -28 -19 -2 2 -20 30 -40 61 -39 61
-75 92 -104 86 -17 -3 -21 -11 -42 -93 -6 -22 -23 -56 -40 -75 l-29 -35 -3426
-3 -3427 -2 -75 36 c-69 34 -79 36 -142 31 -37 -3 -85 -9 -108 -13 l-41 -6 -7
49 c-6 46 -56 143 -73 143 -16 0 -29 -16 -52 -63 -14 -26 -44 -66 -68 -88 -42
-39 -44 -39 -73 -24 -16 8 -49 15 -73 15 l-44 0 -5 78 c-15 209 -191 462 -322
462 -13 0 -78 -36 -144 -80 -66 -43 -187 -113 -269 -154 -81 -41 -163 -85
-180 -97 l-33 -21 0 79 c0 114 -43 238 -86 249 -55 14 -67 4 -108 -93 -38 -90
-66 -119 -66 -68 0 68 -95 255 -130 255 -10 0 -33 -18 -51 -41 -17 -22 -35
-37 -40 -32 -4 4 -17 62 -29 128 -40 222 -96 295 -182 234 -34 -24 -41 -20
-58 36 -36 119 -118 190 -160 140 -21 -25 -26 -18 -36 46 -11 74 -25 83 -99
64 -27 -7 -53 -11 -57 -8 -5 2 -8 22 -8 44 0 33 -7 46 -42 82 -26 25 -60 48
-86 55 -42 13 -42 13 -36 53 6 38 5 40 -61 101 l-67 62 3 110 4 111 -30 6
c-16 4 -49 7 -72 8 -24 0 -43 6 -43 12 0 6 25 36 55 68 61 65 62 63 -12 120
-24 18 -43 39 -43 46 0 7 29 27 65 44 45 20 65 36 65 48 0 27 -33 71 -74 99
-40 28 -45 40 -18 48 10 4 31 19 46 35 26 27 27 32 16 65 -6 20 -32 61 -57 92
-25 31 -41 59 -37 63 5 4 28 22 52 40 23 18 42 41 42 50 0 24 -57 109 -86 128
-36 23 -30 29 30 30 58 2 146 34 146 54 0 7 -11 26 -23 43 -44 58 -60 142 -36
189 19 36 82 97 101 97 10 0 43 -35 80 -85 34 -47 68 -85 75 -85 7 0 20 15 29
33 13 24 19 73 25 204 9 209 15 227 110 292 35 25 129 90 209 145 186 130 261
176 381 237 73 37 100 55 103 72 3 12 7 72 9 132 4 98 8 118 37 180 18 39 43
110 57 159 25 96 42 130 111 218 46 59 134 128 164 128 35 0 74 94 84 201 6
57 11 71 30 84 13 8 29 15 37 15 16 0 48 -42 66 -87 27 -67 78 -31 96 70 12
60 29 49 99 -65 9 -16 23 -28 30 -28 16 0 42 38 51 73 4 16 17 29 33 35 15 5
49 23 76 41 62 38 76 39 76 3 0 -62 54 -69 126 -17 84 61 86 61 162 37 65 -21
70 -21 157 -7 50 9 187 18 305 21 282 8 437 -7 557 -57 34 -14 42 -11 111 32
29 19 37 20 83 9 45 -11 66 -26 159 -115 141 -134 257 -191 431 -211 78 -9 77
1 -6 121 -112 160 -170 316 -204 542 -26 170 -4 376 60 568 35 104 136 296
206 394 77 107 255 297 347 370 199 158 466 276 721 318 80 13 160 16 405 14
168 -1 373 -2 455 -1 83 1 537 0 1011 -1 473 -1 875 2 892 6 21 4 38 18 53 42
42 67 183 249 276 355 102 117 209 220 345 331 47 40 84 76 80 81 -3 6 -846 6
-2109 2 -1450 -5 -2141 -4 -2221 4 -65 5 -171 15 -237 21 -164 15 -457 19
-590 8z"/>
<path d="M13007 18439 c-277 -40 -536 -165 -712 -343 -135 -136 -218 -294
-249 -471 -20 -112 -20 -165 -1 -283 30 -184 117 -355 249 -487 220 -221 498
-325 871 -325 262 0 457 42 658 141 113 56 192 112 278 198 117 118 187 235
231 387 19 67 23 103 23 234 0 142 -3 162 -28 244 -120 378 -473 647 -928 706
-89 11 -311 11 -392 -1z m347 -154 c37 -9 93 -25 124 -37 317 -118 511 -433
513 -829 2 -374 -176 -628 -511 -730 -65 -20 -96 -23 -235 -23 -190 0 -260 15
-410 84 -265 122 -431 415 -452 795 -10 191 40 357 152 497 106 132 295 233
485 258 87 12 251 4 334 -15z"/>
<path d="M12867 17740 c-126 -32 -217 -139 -217 -254 0 -46 39 -131 78 -169
53 -51 124 -77 215 -77 108 0 184 29 244 92 44 45 63 96 63 165 -1 102 -54
180 -155 224 -56 25 -167 34 -228 19z m173 -66 c37 -20 53 -35 80 -74 22 -31
25 -46 25 -120 0 -74 -3 -89 -24 -119 -89 -125 -320 -73 -362 81 -23 86 6 192
63 227 52 33 164 35 218 5z"/>
<path d="M13293 17733 c-22 -8 -14 -22 22 -37 l35 -15 0 -175 c0 -96 -3 -182
-6 -191 -4 -8 -20 -23 -36 -31 -16 -8 -26 -19 -23 -24 4 -6 60 -10 126 -10 98
0 119 3 119 15 0 8 -12 18 -27 21 -48 12 -53 21 -53 105 l0 79 70 0 c66 0 71
-2 82 -25 7 -15 18 -24 27 -23 12 2 17 19 19 67 4 79 -8 95 -43 57 -23 -25
-30 -27 -87 -24 l-63 3 0 80 0 80 72 3 c79 3 113 -8 113 -37 0 -27 28 -34 40
-11 12 23 13 77 2 84 -11 7 -373 15 -389 9z"/>
<path d="M8730 18403 c-50 -10 -77 -57 -47 -81 6 -5 50 -19 96 -31 91 -24 147
-49 173 -77 20 -23 87 -154 507 -989 191 -379 343 -670 357 -682 57 -52 101
-23 164 111 26 55 103 214 170 351 67 138 126 261 131 274 16 41 17 40 212
-389 83 -183 147 -310 166 -329 30 -30 77 -28 108 7 27 29 66 104 527 1017
164 325 309 604 322 622 37 49 74 70 144 83 36 7 72 15 80 20 26 12 23 46 -6
69 -26 20 -37 21 -310 21 -244 0 -285 -2 -298 -16 -18 -17 -20 -42 -7 -63 5
-8 37 -18 71 -23 82 -11 114 -27 118 -59 2 -16 -32 -97 -94 -225 -53 -109
-124 -257 -159 -329 -34 -71 -95 -196 -134 -277 -159 -330 -209 -436 -216
-457 -3 -11 -9 -21 -13 -21 -4 0 -76 139 -161 309 l-155 308 19 49 c17 47 45
101 174 344 31 58 67 127 81 154 33 64 104 142 149 165 20 10 69 24 109 31 61
10 75 16 84 36 19 41 -1 51 -115 58 -56 3 -196 7 -311 7 -192 2 -210 0 -223
-17 -28 -39 -2 -74 56 -74 123 0 141 -60 63 -212 -88 -170 -178 -328 -188
-328 -6 0 -22 22 -35 48 -13 26 -68 126 -121 222 -53 96 -100 187 -103 201
-11 43 20 69 90 76 74 7 95 17 95 46 0 47 -4 47 -380 47 -377 0 -380 0 -380
-47 0 -32 33 -49 120 -63 125 -20 140 -34 222 -190 226 -429 320 -623 314
-648 -9 -44 -248 -512 -261 -512 -24 0 -21 -6 -250 435 -37 72 -91 175 -120
230 -29 55 -83 159 -120 230 -37 72 -95 181 -128 243 -49 93 -60 123 -61 165
l-1 52 55 6 c30 3 65 9 78 13 31 10 46 41 32 66 -10 19 -21 20 -234 20 -122 0
-270 2 -327 4 -57 3 -115 2 -129 -1z"/>
<path d="M15065 18400 c-366 -8 -396 -14 -381 -74 7 -28 43 -43 116 -48 66 -5
106 -23 134 -61 20 -27 21 -43 24 -285 1 -141 -1 -460 -5 -708 -8 -432 -9
-453 -28 -474 -29 -32 -85 -58 -171 -80 -101 -25 -132 -53 -100 -89 13 -14 64
-16 447 -14 287 1 435 5 442 12 7 7 8 20 1 38 -10 30 -37 42 -138 64 -72 16
-116 44 -138 89 -16 31 -18 68 -18 302 0 199 3 269 12 274 20 13 271 10 294
-3 11 -7 60 -77 107 -157 92 -153 229 -360 306 -461 242 -320 498 -512 771
-579 152 -37 213 -43 245 -22 42 28 31 44 -62 86 -295 137 -568 405 -811 799
-87 143 -222 399 -222 424 0 8 10 17 23 21 12 3 58 28 103 55 98 60 207 173
249 256 28 56 30 68 30 170 0 106 -1 112 -34 172 -61 113 -169 194 -322 242
-170 54 -341 64 -874 51z m531 -140 c222 -57 350 -190 362 -375 11 -179 -71
-299 -244 -352 -80 -25 -438 -27 -455 -3 -15 21 -3 718 12 737 19 22 229 17
325 -7z"/>
<path d="M17371 18403 c-334 -3 -377 -5 -393 -20 -26 -23 -19 -64 12 -80 14
-7 70 -15 124 -19 86 -5 102 -9 123 -30 l23 -23 0 -704 c0 -884 9 -837 -165
-837 -110 0 -139 -12 -143 -60 -3 -24 2 -38 14 -47 14 -10 177 -13 804 -13
889 0 799 -9 840 85 43 99 100 267 100 295 0 31 -39 70 -70 70 -26 0 -62 -41
-115 -130 -26 -45 -68 -103 -94 -130 -42 -46 -51 -51 -111 -60 -36 -5 -175
-10 -310 -10 -248 0 -339 10 -378 43 -39 32 -41 54 -48 758 -7 635 -6 686 10
717 22 42 64 60 168 72 87 10 118 27 118 65 0 34 -32 55 -86 58 -27 2 -217 2
-423 0z"/>
<path d="M18991 18377 c-43 -47 -6 -97 72 -97 54 0 119 -39 142 -85 18 -35 20
-63 23 -240 1 -110 -1 -421 -5 -692 -8 -474 -9 -493 -29 -520 -22 -31 -96 -72
-131 -73 -12 0 -45 -5 -73 -11 -61 -13 -81 -40 -54 -70 16 -18 33 -19 258 -19
133 0 302 -5 376 -11 212 -17 555 -15 690 5 356 53 594 158 771 342 107 111
169 225 211 385 32 124 32 336 0 433 -103 306 -369 523 -761 621 -155 38 -244
43 -871 51 l-595 6 -24 -25z m974 -107 c372 -24 564 -88 716 -240 105 -104
157 -207 190 -375 21 -104 18 -341 -4 -438 -53 -226 -203 -391 -427 -470 -133
-46 -235 -60 -465 -61 -198 -1 -213 1 -268 23 -81 32 -130 82 -151 153 -15 51
-16 129 -14 717 2 525 6 663 16 673 8 8 51 15 110 19 53 3 106 6 117 7 11 1
92 -3 180 -8z"/>
<path d="M17919 18153 c-25 -13 -70 -26 -100 -30 -30 -3 -60 -10 -66 -15 -10
-8 -11 -145 -6 -622 3 -336 10 -615 14 -621 11 -11 372 -21 422 -11 l34 6 6
83 c10 148 -17 422 -64 637 -47 216 -163 591 -184 595 -6 1 -31 -9 -56 -22z"/>
<path d="M11853 17505 c-31 -130 -38 -208 -38 -450 0 -148 6 -287 13 -340 63
-440 151 -741 313 -1068 70 -141 89 -169 108 -164 24 6 441 277 441 287 0 4
-19 41 -42 82 -23 40 -52 98 -65 128 -14 30 -31 69 -38 85 -50 110 -101 263
-154 471 -9 33 -20 47 -60 72 -72 47 -192 163 -249 240 -137 186 -205 391
-215 642 l-2 65 -12 -50z"/>
<path d="M17630 16388 c-5 -13 -21 -63 -36 -113 -58 -190 -164 -411 -284 -594
-33 -50 -60 -94 -60 -97 0 -3 82 -91 182 -196 l183 -190 23 29 c83 102 249
396 326 577 85 198 195 558 182 592 -4 12 -47 14 -256 14 -250 0 -250 0 -260
-22z"/>
<path d="M14930 16167 c-47 -51 -242 -263 -435 -471 -192 -208 -353 -384 -357
-390 -3 -6 -11 -265 -17 -576 -13 -666 -27 -1314 -42 -1967 l-11 -472 98 -108
c55 -60 241 -263 414 -452 173 -189 344 -376 379 -415 35 -39 67 -72 70 -74
14 -5 891 833 891 852 0 17 -109 343 -152 454 -22 56 -43 102 -48 102 -11 0
-160 -116 -313 -243 -62 -51 -149 -119 -194 -150 l-81 -58 -84 103 c-46 57
-101 124 -121 149 l-37 46 0 669 c0 368 3 929 7 1248 l6 579 134 146 c74 80
138 147 143 149 4 2 28 -16 52 -40 24 -24 105 -97 182 -162 135 -116 139 -119
163 -104 43 26 408 292 415 303 8 10 -949 975 -967 975 -6 0 -49 -42 -95 -93z"/>
<path d="M5480 16135 c0 -4 28 -34 63 -65 68 -64 111 -128 163 -247 32 -74 46
-128 109 -408 14 -60 56 -247 95 -415 154 -671 213 -929 235 -1025 12 -55 55
-242 95 -415 96 -418 99 -429 109 -475 5 -22 30 -132 56 -245 88 -383 95 -419
88 -463 -12 -80 -59 -166 -149 -273 l-43 -51 361 -6 c199 -4 471 -7 605 -7
265 0 255 -2 232 57 -24 61 -50 162 -59 228 -8 64 -6 86 31 250 22 99 42 189
44 200 3 11 34 153 70 315 36 162 72 322 79 355 8 33 17 75 21 93 8 39 21 42
29 5 36 -178 128 -627 136 -658 5 -22 19 -85 30 -140 11 -55 27 -131 35 -170
41 -190 38 -303 -11 -450 -13 -38 -24 -73 -24 -77 0 -5 270 -8 600 -8 330 0
600 3 600 7 0 3 -22 52 -50 107 -53 109 -80 199 -80 268 0 24 110 703 244
1509 186 1111 251 1482 271 1539 58 162 160 357 282 541 34 52 63 101 63 108
0 10 -115 12 -569 9 -313 -1 -573 -7 -577 -11 -5 -4 -3 -16 4 -25 48 -68 64
-170 44 -282 -11 -61 -78 -464 -92 -550 -63 -388 -299 -1795 -306 -1820 -6
-24 -7 -24 -15 -5 -5 11 -142 553 -304 1205 -339 1357 -305 1224 -315 1214
-12 -14 -104 -368 -205 -784 -155 -645 -238 -978 -316 -1265 -83 -304 -99
-355 -108 -355 -5 0 -14 26 -19 58 -6 31 -39 190 -72 352 -34 162 -65 315 -70
340 -5 25 -36 178 -70 340 -113 550 -131 635 -155 755 -13 66 -36 174 -50 240
-24 115 -25 126 -15 280 5 88 10 195 10 238 l0 77 -172 0 c-95 0 -350 2 -565
6 -216 3 -393 3 -393 -1z"/>
<path d="M24465 15637 c-96 -46 -145 -126 -145 -236 1 -82 34 -149 98 -198
193 -147 463 47 387 279 -35 109 -110 168 -223 175 -56 3 -76 0 -117 -20z
m176 -31 c143 -61 173 -260 56 -363 -33 -29 -90 -53 -127 -53 -67 0 -159 63
-186 128 -8 19 -14 63 -14 97 0 54 4 69 33 111 55 82 154 116 238 80z"/>
<path d="M24482 15538 c-13 -13 -18 -232 -6 -262 3 -9 15 -16 25 -16 16 0 19
8 19 55 0 61 10 72 55 61 19 -5 28 -18 40 -61 13 -44 21 -55 37 -55 18 0 20 5
15 39 -3 22 -12 54 -21 72 -15 31 -15 34 4 54 37 39 22 96 -31 114 -42 15
-122 14 -137 -1z m119 -38 c43 -24 9 -83 -45 -78 -29 3 -31 6 -34 46 -3 41 -2
42 28 42 17 0 40 -5 51 -10z"/>
<path d="M21565 15542 c-88 -59 -394 -265 -680 -456 -286 -192 -528 -356 -538
-364 -17 -15 -4 -23 181 -113 109 -54 203 -103 209 -111 8 -9 15 -309 23 -974
11 -989 9 -1080 -26 -1253 -16 -74 -58 -199 -73 -214 -10 -10 -110 193 -165
336 -60 154 -93 260 -175 557 -39 140 -85 303 -102 362 -18 65 -29 123 -27
149 3 46 2 46 103 67 118 25 202 44 233 54 l33 10 -3 161 -3 162 -55 -2 c-30
-1 -102 -11 -160 -23 -58 -12 -143 -24 -190 -27 l-85 -6 -28 119 c-16 66 -75
259 -132 429 -165 489 -191 614 -182 859 4 100 12 175 25 223 10 40 17 75 14
78 -2 2 -39 -14 -81 -37 -518 -281 -1181 -661 -1181 -676 0 -4 41 -36 92 -72
105 -75 148 -115 148 -138 -1 -22 13 41 -235 -1087 -120 -544 -221 -1009 -226
-1032 -15 -78 -69 -191 -105 -223 -19 -16 -40 -30 -47 -30 -18 0 -71 58 -92
99 -15 30 -18 86 -24 455 -4 232 -10 427 -14 433 -4 7 -74 47 -155 89 -81 43
-192 101 -247 130 -55 29 -100 57 -100 62 0 8 186 191 584 574 l184 178 -99
102 c-193 201 -821 854 -958 997 -76 80 -144 149 -151 153 -6 4 -56 -19 -111
-51 -54 -32 -339 -194 -631 -361 -293 -167 -533 -306 -533 -310 0 -7 41 -38
250 -190 63 -46 121 -90 128 -99 9 -12 12 -234 12 -1036 l0 -1022 -47 -89
c-25 -49 -77 -147 -115 -218 -37 -71 -68 -133 -68 -138 0 -4 245 -8 545 -8
300 0 545 2 545 5 0 3 -20 30 -45 60 -98 121 -128 234 -127 490 0 99 5 232 11
295 6 63 11 157 11 208 0 50 3 92 6 92 3 0 92 -52 198 -115 l193 -114 6 -243
c4 -198 9 -259 26 -331 35 -146 90 -236 194 -319 l49 -38 733 0 c404 0 736 3
738 8 3 4 -17 36 -44 72 -122 160 -177 282 -186 410 l-5 85 49 75 c111 168
218 259 570 484 68 43 128 76 134 74 12 -4 83 -212 160 -468 82 -276 79 -331
-29 -566 -33 -71 -62 -138 -66 -150 l-6 -21 1026 -7 c564 -4 1028 -5 1031 -3
2 3 -16 31 -40 64 -116 153 -157 305 -157 583 0 85 5 209 10 275 6 66 12 197
13 292 l2 171 135 9 c224 14 346 9 413 -17 32 -12 73 -35 92 -51 18 -16 38
-29 44 -29 15 0 16 646 0 656 -6 3 -102 11 -212 16 -111 5 -263 12 -337 16
l-135 7 -6 185 c-4 102 -10 256 -13 342 l-6 158 152 101 c83 56 159 104 169
106 11 3 79 -49 199 -154 100 -87 186 -160 192 -161 5 -2 26 16 48 41 23 25
61 54 92 68 49 22 67 24 262 27 115 2 212 0 217 -5 4 -4 8 -530 9 -1168 2
-1159 2 -1160 -19 -1219 -29 -82 -73 -158 -137 -238 -30 -37 -54 -69 -54 -72
0 -4 272 -6 605 -6 333 0 605 2 605 4 0 3 -77 114 -170 248 l-170 243 6 1085
c5 810 9 1088 18 1098 10 10 254 31 382 32 12 0 77 -34 145 -75 68 -41 129
-75 135 -75 13 0 31 781 19 801 -5 8 -47 9 -149 5 -77 -3 -427 -11 -776 -17
-349 -6 -734 -14 -855 -18 l-220 -6 -3 -47 c-2 -30 -8 -48 -15 -48 -15 0 -89
75 -267 270 -72 80 -137 146 -143 148 -7 1 -84 -47 -172 -106z m-4491 -1018
c108 -113 196 -210 196 -216 0 -12 -390 -408 -402 -408 -4 0 -8 187 -8 415 0
248 4 415 9 415 5 0 98 -93 205 -206z m2234 -384 c74 -265 105 -392 106 -437
1 -38 22 -24 -361 -239 -34 -19 -64 -31 -66 -27 -2 5 2 37 9 73 7 36 36 184
64 330 28 146 67 342 86 436 19 94 34 178 34 187 0 9 5 28 11 44 11 27 13 23
34 -62 13 -49 50 -187 83 -305z"/>
<path d="M12535 15468 c-77 -50 -264 -170 -415 -268 -151 -97 -367 -237 -480
-309 -113 -73 -209 -136 -214 -141 -5 -5 35 -37 93 -74 55 -36 147 -96 203
-132 l101 -66 -7 -956 c-4 -526 -11 -1037 -15 -1136 l-7 -179 -29 -25 -29 -25
-29 34 c-43 51 -151 279 -195 414 -22 66 -65 224 -96 350 -32 127 -68 274 -82
328 -13 54 -24 102 -24 107 0 14 63 28 185 39 60 6 113 15 117 19 11 11 50
250 43 261 -3 5 -33 12 -67 16 -203 22 -373 46 -379 52 -4 5 -17 53 -29 108
-23 101 -70 265 -155 540 -121 393 -157 590 -159 862 0 106 -4 193 -7 193 -4
0 -62 -31 -130 -68 -68 -38 -160 -88 -204 -112 -44 -23 -93 -50 -110 -60 -16
-10 -59 -33 -95 -52 -36 -20 -137 -75 -225 -123 -88 -48 -187 -102 -220 -120
-179 -97 -216 -118 -222 -128 -3 -6 4 -18 18 -26 62 -40 141 -128 170 -189 28
-58 31 -71 26 -131 -3 -36 -10 -84 -15 -106 -36 -155 -88 -376 -107 -460 -24
-104 -34 -148 -190 -820 -52 -225 -106 -457 -119 -515 -14 -58 -40 -139 -59
-180 -19 -41 -44 -95 -55 -120 -11 -25 -39 -85 -61 -133 -23 -49 -38 -93 -35
-98 7 -12 864 -12 864 0 0 4 -16 43 -36 85 -64 139 -91 302 -69 418 13 71 182
263 313 358 87 63 192 115 291 146 81 25 85 26 98 8 7 -10 13 -25 13 -34 0 -9
22 -93 49 -186 111 -381 117 -532 31 -711 -22 -45 -40 -84 -40 -87 0 -3 450
-6 1000 -6 550 0 1000 3 1000 7 0 3 -22 29 -49 58 -56 59 -102 143 -127 236
-15 51 -18 102 -18 249 0 161 20 498 30 509 3 3 387 -251 409 -271 6 -5 10
-96 10 -231 l0 -223 38 -76 c31 -65 54 -92 140 -172 l102 -96 180 0 c99 0 257
3 352 7 l172 6 -55 61 c-63 69 -125 188 -148 286 -29 120 -37 265 -30 521 4
147 3 252 -2 262 -8 14 -214 143 -481 301 -29 17 -53 36 -53 41 0 6 167 177
370 380 204 204 369 375 368 382 -3 10 -197 210 -1082 1111 -99 100 -182 182
-185 182 -3 -1 -69 -42 -146 -92z m290 -985 c124 -114 225 -211 225 -217 -1
-6 -47 -47 -103 -91 -56 -44 -157 -126 -225 -182 -67 -57 -127 -103 -132 -103
-6 0 -10 150 -10 400 0 271 3 400 10 400 6 0 112 -93 235 -207z m-2450 -283
c18 -69 51 -192 73 -275 47 -178 92 -375 92 -407 0 -16 -9 -27 -27 -35 -16 -6
-98 -43 -183 -81 -148 -67 -217 -89 -214 -67 1 6 14 69 29 140 15 72 31 148
36 170 7 34 73 349 99 470 4 22 16 79 26 128 10 48 22 86 27 84 6 -2 24 -59
42 -127z"/>
</g>
</svg>
